# xmcd
#
# Track frame offsets: 
#        150
#        18342
#        32772
#        48341
#        75936
#        98983
#        109265
#        114939
#        128895
#        150022
#        168533
#        184419
#        191413
#
# Disc length: 2753 seconds
#
# Revision: 0
# Processed by: cddbd v1.5.2PL0 Copyright (c) Steve Scherf et al.
# Submitted via: ExactAudioCopyFreeDBPlugin 1.0
#
DISCID=970abf0d
DTITLE=Lüül and Band - Fremdenzimmer
DYEAR=2018
DGENRE=Nö
TTITLE0=Nächte und Träume
TTITLE1=Fräulein C
TTITLE2=Gut zu wissen
TTITLE3=Menschvermesser
TTITLE4=Leben ist gut
TTITLE5=Dumm gelaufen
TTITLE6=Wankelmut
TTITLE7=Dreier
TTITLE8=Hohe Wellen
TTITLE9=Einfach so
TTITLE10=Party People
TTITLE11=Schnauze voll
TTITLE12=Schwarz war die See
EXTD=
EXTT0=
EXTT1=
EXTT2=
EXTT3=
EXTT4=
EXTT5=
EXTT6=
EXTT7=
EXTT8=
EXTT9=
EXTT10=
EXTT11=
EXTT12=
PLAYORDER=
